<?xml version="1.0" encoding="utf-8"?>
<!-- Generator: Adobe Illustrator 23.0.2, SVG Export Plug-In . SVG Version: 6.00 Build 0)  -->
<svg version="1.1" id="Ebene_1" xmlns="http://www.w3.org/2000/svg" xmlns:xlink="http://www.w3.org/1999/xlink" x="0px" y="0px"
	 viewBox="0 0 310.4 369.2" style="enable-background:new 0 0 310.4 369.2;" xml:space="preserve">
<style type="text/css">
	.st0{fill:#8FC544;}
	.st1{fill-rule:evenodd;clip-rule:evenodd;fill:#454545;}
	.st2{fill:#454545;}
	.st3{font-family:'TTRounds-Bold';}
	.st4{font-size:56px;}
	.st5{letter-spacing:1;}
	.st6{font-size:64px;}
	.st7{font-size:45px;}
</style>
<g>
	
		<image style="display:none;overflow:visible;" width="389" height="372" xlink:href="kabelSALAT.jpg"  transform="matrix(1 0 0 1 -5.2173 9.7596)">
	</image>
	<path class="st0" d="M220.3,81.6c-1-5.6-2.1-6.4-7.6-5.9c-10.9,1.1-21.3,3.8-30.9,9.1c-1.3,0.7-2.8,2.1-4.1,1.3
		c-1.4-0.8-0.5-2.8-0.4-4.2c2.9-26.2-5.5-48.2-24.4-66.3c-3.5-3.4-4.8-3.4-8.3,0c-19.1,18.4-27.3,40.9-24.3,67.3
		c0.1,1.2,0.7,2.5-0.3,3.3c-1.3,1.2-2.4-0.3-3.5-0.9c-10.1-6-21.2-8.6-32.7-9.8c-3.3-0.3-6.1,0-6.6,4.1c-0.7,7.1-1.8,14.2-0.8,21.4
		c3.7,27.2,17.7,46.9,43,58.2c3,1.4,4,3.3,4,6.6c-0.2,12.8,0,25.7-0.1,38.5c2.9,0,5.8,0,8.6,0c-0.1-16,0-32-0.1-48
		c-0.1-11.9-2.7-23.1-9.8-33c-3.1-4.4-7.1-8-11-11.5c-2.2-1.9-4.5-2.4-6.6,0c-2.2,2.6-0.8,4.6,1.3,6.4c0.9,0.8,1.8,1.4,2.7,2.2
		c8,7.2,12.7,16.1,14.5,26.7c0.2,1.3,0.8,2.9-0.3,3.8c-0.9,0.8-2.2-0.4-3.2-0.8c-22.5-10.1-38-38-34.7-62.3c0.4-3.1,1.9-4,4.7-3.5
		c4.8,0.8,9.4,2.1,13.9,3.9c24.2,9.9,38.1,28,40.7,53.9l0.3,30.9c0,0,0,20.8,0,31.3c2.9,0,5.8,0,8.6,0c-0.2-19.2,0-38.5-0.1-57.7
		c0-8.8,1.5-17.3,5.4-25.1c10-20,25.7-32.8,48-36.8c5.5-1,6.4-0.1,6.8,5.5c0.3,5.2,0.2,10.3-1.1,15.4c-4.8,19.8-15.4,35.2-34,44.5
		c-1.1,0.5-2.4,1.9-3.6,0.8c-0.8-0.7-0.2-2.2,0-3.4c1.7-11.7,7.3-21.3,16.5-28.7c2.3-1.9,4.6-3.9,1.8-7c-2.6-2.8-4.9-1.5-7.3,0.6
		c-13.9,12-20.2,27.1-19.8,45.4c0.3,15.5,0.1,31-0.1,46.5c2.8,0,5.6,0,8.5,0c-0.2-11.7,0.3-23.3-0.2-35c-0.2-6.1,1.8-9.2,7.3-11.8
		C209.8,144,225.8,112.6,220.3,81.6z M169.3,83.6c-1.3,11-7.5,19-14.7,26.6c-0.3,0.3-0.8,1-1.2,0.5c-0.4-0.4-0.4-1.2-0.4-1.8
		c0-6.8,0-13.7,0-20.5c0-6.7,0-13.3,0-20c0-1.9-0.2-3.7-1.1-5.3c-0.9-1.8-2.6-1.9-4.3-1.6c-2.5,0.5-3,2.5-3,4.6
		c-0.1,7.3,0,14.7,0,22c0,0,0,0,0,0c0,7,0,14,0,21c0,0.9,0.6,2.3-0.4,2.8c-1.4,0.6-1.8-1.1-2.4-1.9c-15.3-17.6-17.3-37.5-10.3-58.9
		c2.9-8.9,7.4-17.1,13.8-24.1c3.2-3.6,4.2-3.6,7.4,0.1C162,37.5,167,50,169.1,63.8C170.1,70.4,170,77,169.3,83.6z"/>
</g>
<path class="st1" d="M174.1,204.5l0.1,21.4c0,18,15.2,32.8,33.9,32.8h28c0.1,0,0.3-0.1,0.3-0.3v-2.9c0-3.7,3.1-6.7,6.9-6.7h26.1
	c3.6,0,6.7,2.9,6.7,6.4v1.1c0,0.1,0.1,0.2,0.2,0.2c1.8,0.4,3.1,2,3.1,3.8v4.7c0,1.9-1.3,3.5-3.1,3.8c-0.1,0-0.2,0.1-0.2,0.2v1.1
	c0,3.6-3,6.4-6.7,6.4H243c-3.7,0-6.7-2.9-6.7-6.4l0,0v-3.2c0-0.1-0.1-0.3-0.3-0.3h-27.8c-23.4,0-42.6-18.6-42.6-41.3l-0.1-21.1
	 M271.6,256.5c0.1,0,0.3-0.1,0.3-0.3v-1c0-1.3-1.1-2.3-2.4-2.3h-12.9c-0.1,0-0.3,0.1-0.3,0.3v4.2c0,0.1,0.1,0.3,0.3,0.3h4.7
	c0.1,0,0.1,0,0.2-0.1c0.8-0.7,1.8-1.1,2.9-1.1H271.6z M256.3,272.5c0,0.1,0.1,0.3,0.3,0.3h12.9c1.3,0,2.4-1.1,2.4-2.4v-1
	c0-0.1-0.1-0.3-0.3-0.3h-7.3c-1.1,0-2.1-0.4-2.9-1.1c0,0-0.1-0.1-0.2-0.1h-4.7c-0.1,0-0.3,0.1-0.3,0.3V272.5z M263.5,265.1v-0.4h-11
	c-0.4,0-0.7-0.3-0.7-0.7v-2.6c0-0.3,0.2-0.4,0.5-0.4h11c0.1,0,0.3-0.1,0.3-0.3l0,0c0-0.5,0.5-1,1-1h10.7c0.5,0,0.8,0.4,0.8,0.7v4.4
	c0,0.5-0.5,1-1,1h-10.8C263.9,265.8,263.5,265.5,263.5,265.1L263.5,265.1z"/>
<path class="st1" d="M144.5,204.5l0,115.1c0,0.1-0.1,0.3-0.3,0.3h-3.3c-3.8,0-6.8,2.9-6.8,6.6v26.3c0,3.6,3,6.6,6.8,6.6h1.2
	c0.1,0,0.2,0.1,0.3,0.2c0.4,1.8,2,3.1,4.1,3.1h5c1.9,0,3.6-1.3,4.1-3.1c0-0.1,0.1-0.2,0.3-0.2h1.2c3.8,0,6.8-3,6.8-6.6v-26.1
	c0-3.8-3.2-6.9-7.1-6.9h-3.1c-0.2,0-0.3-0.1-0.3-0.3l0-115.1H144.5z M159,339.6c0.2,0,0.3,0.1,0.3,0.3v12.9c0,1.3-1.1,2.4-2.5,2.4
	h-1c-0.1,0-0.3-0.1-0.3-0.3v-7.3c0-1.1-0.4-2.1-1.2-2.9c0,0-0.1-0.1-0.1-0.2l0-4.7c0-0.1,0.1-0.3,0.3-0.3H159z M140.8,355.2
	c-1.4,0-2.6-1.1-2.6-2.4v-12.9c0-0.1,0.1-0.3,0.3-0.3h4.5c0.2,0,0.3,0.1,0.3,0.3v4.7c0,0.1,0,0.1-0.1,0.2c-0.7,0.7-1.2,1.8-1.2,2.9
	v7.3c0,0.1-0.1,0.3-0.3,0.3H140.8z M146.6,359.4c-0.6,0-1-0.5-1-1v-10.7c0-0.4,0.3-0.8,0.8-0.8h0.5v-11c0-0.4,0.3-0.7,0.7-0.7h2.7
	c0.3,0,0.5,0.2,0.5,0.5v11c0,0.1,0.1,0.3,0.3,0.3c0.6,0,1,0.5,1,1v10.7c0,0.5-0.4,0.8-0.8,0.8H146.6z"/>
<path class="st1" d="M132.1,204.5l0,22.1c0,22.7-19.2,41.3-42.6,41.3H61.6c-0.1,0-0.3,0.1-0.3,0.3v3.2l0,0c0,3.6-3,6.4-6.7,6.4H28.3
	c-3.6,0-6.7-2.9-6.7-6.4v-1.1c0-0.1-0.1-0.2-0.2-0.2c-1.8-0.4-3.1-1.9-3.1-3.8v-4.7c0-1.8,1.3-3.4,3.1-3.8c0.1,0,0.2-0.1,0.2-0.2
	v-1.1c0-3.6,3-6.4,6.7-6.4h26.1c3.8,0,6.9,3,6.9,6.7v2.9c0,0.1,0.1,0.3,0.3,0.3h28c18.7,0,33.9-14.8,33.9-32.8l-0.1-22.4
	 M33.4,257.4c1.1,0,2.1,0.4,2.9,1.1c0,0,0.1,0.1,0.2,0.1h4.7c0.1,0,0.3-0.1,0.3-0.3v-4.2c0-0.1-0.1-0.3-0.3-0.3H28.3
	c-1.3,0-2.4,1-2.4,2.3v1c0,0.1,0.1,0.3,0.3,0.3H33.4z M41.5,269.1c0-0.1-0.1-0.3-0.3-0.3h-4.7c-0.1,0-0.1,0-0.2,0.1
	c-0.8,0.7-1.8,1.1-2.9,1.1h-7.3c-0.1,0-0.3,0.1-0.3,0.3v1c0,1.3,1.1,2.4,2.4,2.4h12.9c0.1,0,0.3-0.1,0.3-0.3V269.1z M34.2,266.1
	c0,0.4-0.4,0.7-0.8,0.7H22.7c-0.6,0-1-0.4-1-1v-4.4c0-0.4,0.4-0.7,0.8-0.7h10.7c0.6,0,1,0.4,1,1l0,0c0,0.1,0.1,0.3,0.3,0.3h11
	c0.2,0,0.5,0.1,0.5,0.4v2.6c0,0.4-0.3,0.7-0.7,0.7h-11V266.1L34.2,266.1z"/>
<text transform="matrix(1 0 0 1 5.6523 317.2382)"><tspan x="0" y="0" class="st2 st3 st4 st5">kabe</tspan><tspan x="133" y="0" class="st2 st3 st6 st5"> </tspan><tspan x="151.6" y="0" class="st0 st3 st7">SALAT</tspan></text>
</svg>
